# xmcd CD database file
#
# Track frame offsets:
#        150
#        16118
#        39982
#        61234
#        80565
#        99173
#        123012
#        147350
#        164356
#
# Disc length: 2544 seconds
#
# Revision: 0
# Processed by: cddbd v1.5.2PL0 Copyright (c) Steve Scherf et al.
# Submitted via: CUERipper 2.1.6
#
DISCID=6309ee09
DTITLE=Miockingbird Hillbillies - Tracks
DYEAR=2017
DGENRE=Country
TTITLE0=Box with Jewels
TTITLE1=Free
TTITLE2=Years gone by
TTITLE3=Road to Paradise
TTITLE4=My Story
TTITLE5=Peace of Mind
TTITLE6=Waltz for the not so Newly Wed
TTITLE7=Dusty Days
TTITLE8=If I find me a Star
EXTD=
EXTT0=
EXTT1=
EXTT2=
EXTT3=
EXTT4=
EXTT5=
EXTT6=
EXTT7=
EXTT8=
PLAYORDER=
